solid OpenSCAD_Model
  facet normal -0 0 1
    outer loop
      vertex -419.098 -58.7785 200
      vertex -78.3963 -745.891 200
      vertex -408.645 -40.6737 200
    endloop
  endfacet
  facet normal 0 0 1
    outer loop
      vertex -78.3963 -745.891 200
      vertex -419.098 -58.7785 200
      vertex -231.763 -713.292 200
    endloop
  endfacet
  facet normal -0 0 1
    outer loop
      vertex -433.087 -74.3145 200
      vertex -231.763 -713.292 200
      vertex -419.098 -58.7785 200
    endloop
  endfacet
  facet normal 0 0 1
    outer loop
      vertex -231.763 -713.292 200
      vertex -433.087 -74.3145 200
      vertex -375 -649.519 200
    endloop
  endfacet
  facet normal -0 0 1
    outer loop
      vertex -450 -86.6025 200
      vertex -375 -649.519 200
      vertex -433.087 -74.3145 200
    endloop
  endfacet
  facet normal 0 0 1
    outer loop
      vertex -501.848 -557.359 200
      vertex -450 -86.6025 200
      vertex -469.098 -95.1057 200
    endloop
  endfacet
  facet normal 0 0 1
    outer loop
      vertex -606.763 -440.839 200
      vertex -469.098 -95.1057 200
      vertex -489.547 -99.4522 200
    endloop
  endfacet
  facet normal 0 0 1
    outer loop
      vertex -450 -86.6025 200
      vertex -501.848 -557.359 200
      vertex -375 -649.519 200
    endloop
  endfacet
  facet normal 0 0 1
    outer loop
      vertex -685.159 -305.052 200
      vertex -489.547 -99.4522 200
      vertex -510.453 -99.4522 200
    endloop
  endfacet
  facet normal 0 0 1
    outer loop
      vertex -685.159 -305.052 200
      vertex -510.453 -99.4522 200
      vertex -530.902 -95.1057 200
    endloop
  endfacet
  facet normal 0 0 1
    outer loop
      vertex -685.159 -305.052 200
      vertex -530.902 -95.1057 200
      vertex -550 -86.6025 200
    endloop
  endfacet
  facet normal 0 0 1
    outer loop
      vertex -733.611 -155.934 200
      vertex -550 -86.6025 200
      vertex -566.913 -74.3145 200
    endloop
  endfacet
  facet normal 0 0 1
    outer loop
      vertex -733.611 -155.934 200
      vertex -566.913 -74.3145 200
      vertex -580.902 -58.7785 200
    endloop
  endfacet
  facet normal 0 0 1
    outer loop
      vertex -733.611 -155.934 200
      vertex -580.902 -58.7785 200
      vertex -591.355 -40.6737 200
    endloop
  endfacet
  facet normal 0 0 1
    outer loop
      vertex -750 0 200
      vertex -591.355 -40.6737 200
      vertex -597.815 -20.7912 200
    endloop
  endfacet
  facet normal 0 0 1
    outer loop
      vertex -469.098 -95.1057 200
      vertex -606.763 -440.839 200
      vertex -501.848 -557.359 200
    endloop
  endfacet
  facet normal -0 0 1
    outer loop
      vertex -750 0 200
      vertex -597.815 -20.7912 200
      vertex -600 0 200
    endloop
  endfacet
  facet normal 0 0 1
    outer loop
      vertex -750 0 200
      vertex -591.355 40.6737 200
      vertex -733.611 155.934 200
    endloop
  endfacet
  facet normal 0 0 1
    outer loop
      vertex -591.355 40.6737 200
      vertex -750 0 200
      vertex -597.815 20.7912 200
    endloop
  endfacet
  facet normal 0 0 1
    outer loop
      vertex -489.547 -99.4522 200
      vertex -685.159 -305.052 200
      vertex -606.763 -440.839 200
    endloop
  endfacet
  facet normal 0 0 1
    outer loop
      vertex -597.815 20.7912 200
      vertex -750 0 200
      vertex -600 0 200
    endloop
  endfacet
  facet normal 0 0 1
    outer loop
      vertex -550 -86.6025 200
      vertex -733.611 -155.934 200
      vertex -685.159 -305.052 200
    endloop
  endfacet
  facet normal 0 0 1
    outer loop
      vertex -591.355 -40.6737 200
      vertex -750 0 200
      vertex -733.611 -155.934 200
    endloop
  endfacet
  facet normal -0 0 1
    outer loop
      vertex 591.355 40.6737 200
      vertex 750 0 200
      vertex 733.611 155.934 200
    endloop
  endfacet
  facet normal 0 0 1
    outer loop
      vertex 550 86.6025 200
      vertex 733.611 155.934 200
      vertex 685.159 305.052 200
    endloop
  endfacet
  facet normal 0 0 1
    outer loop
      vertex 750 0 200
      vertex 597.815 20.7912 200
      vertex 600 0 200
    endloop
  endfacet
  facet normal 0 0 1
    outer loop
      vertex 489.547 99.4522 200
      vertex 685.159 305.052 200
      vertex 606.763 440.839 200
    endloop
  endfacet
  facet normal 0 0 1
    outer loop
      vertex 597.815 -20.7912 200
      vertex 750 0 200
      vertex 600 0 200
    endloop
  endfacet
  facet normal 0 0 1
    outer loop
      vertex 750 0 200
      vertex 591.355 -40.6737 200
      vertex 733.611 -155.934 200
    endloop
  endfacet
  facet normal 0 0 1
    outer loop
      vertex 591.355 -40.6737 200
      vertex 750 0 200
      vertex 597.815 -20.7912 200
    endloop
  endfacet
  facet normal 0 0 1
    outer loop
      vertex 750 0 200
      vertex 591.355 40.6737 200
      vertex 597.815 20.7912 200
    endloop
  endfacet
  facet normal 0 0 1
    outer loop
      vertex 733.611 155.934 200
      vertex 580.902 58.7785 200
      vertex 591.355 40.6737 200
    endloop
  endfacet
  facet normal 0 0 1
    outer loop
      vertex 733.611 155.934 200
      vertex 566.913 74.3145 200
      vertex 580.902 58.7785 200
    endloop
  endfacet
  facet normal 0 0 1
    outer loop
      vertex 733.611 155.934 200
      vertex 550 86.6025 200
      vertex 566.913 74.3145 200
    endloop
  endfacet
  facet normal 0 0 1
    outer loop
      vertex 685.159 305.052 200
      vertex 530.902 95.1057 200
      vertex 550 86.6025 200
    endloop
  endfacet
  facet normal 0 0 1
    outer loop
      vertex 685.159 305.052 200
      vertex 510.453 99.4522 200
      vertex 530.902 95.1057 200
    endloop
  endfacet
  facet normal 0 0 1
    outer loop
      vertex 469.098 95.1057 200
      vertex 606.763 440.839 200
      vertex 501.848 557.359 200
    endloop
  endfacet
  facet normal 0 0 1
    outer loop
      vertex 685.159 305.052 200
      vertex 489.547 99.4522 200
      vertex 510.453 99.4522 200
    endloop
  endfacet
  facet normal 0 0 1
    outer loop
      vertex 606.763 440.839 200
      vertex 469.098 95.1057 200
      vertex 489.547 99.4522 200
    endloop
  endfacet
  facet normal 0 0 1
    outer loop
      vertex 501.848 557.359 200
      vertex 450 86.6025 200
      vertex 469.098 95.1057 200
    endloop
  endfacet
  facet normal 0 0 1
    outer loop
      vertex 501.848 557.359 200
      vertex 433.087 74.3145 200
      vertex 450 86.6025 200
    endloop
  endfacet
  facet normal 0 0 1
    outer loop
      vertex 375 649.519 200
      vertex 433.087 74.3145 200
      vertex 501.848 557.359 200
    endloop
  endfacet
  facet normal 0 0 1
    outer loop
      vertex 231.763 713.292 200
      vertex 433.087 74.3145 200
      vertex 375 649.519 200
    endloop
  endfacet
  facet normal 0 0 1
    outer loop
      vertex 433.087 74.3145 200
      vertex 231.763 713.292 200
      vertex 419.098 58.7785 200
    endloop
  endfacet
  facet normal 0 0 1
    outer loop
      vertex 419.098 58.7785 200
      vertex 78.3963 745.891 200
      vertex 408.645 40.6737 200
    endloop
  endfacet
  facet normal 0 0 1
    outer loop
      vertex 78.3963 745.891 200
      vertex 419.098 58.7785 200
      vertex 231.763 713.292 200
    endloop
  endfacet
  facet normal -0 0 1
    outer loop
      vertex 580.902 -58.7785 200
      vertex 733.611 -155.934 200
      vertex 591.355 -40.6737 200
    endloop
  endfacet
  facet normal -0 0 1
    outer loop
      vertex 566.913 -74.3145 200
      vertex 733.611 -155.934 200
      vertex 580.902 -58.7785 200
    endloop
  endfacet
  facet normal -0 0 1
    outer loop
      vertex 550 -86.6025 200
      vertex 733.611 -155.934 200
      vertex 566.913 -74.3145 200
    endloop
  endfacet
  facet normal 0 0 1
    outer loop
      vertex 733.611 -155.934 200
      vertex 550 -86.6025 200
      vertex 685.159 -305.052 200
    endloop
  endfacet
  facet normal -0 0 1
    outer loop
      vertex 530.902 -95.1057 200
      vertex 685.159 -305.052 200
      vertex 550 -86.6025 200
    endloop
  endfacet
  facet normal -0 0 1
    outer loop
      vertex 510.453 -99.4522 200
      vertex 685.159 -305.052 200
      vertex 530.902 -95.1057 200
    endloop
  endfacet
  facet normal -0 0 1
    outer loop
      vertex 489.547 -99.4522 200
      vertex 685.159 -305.052 200
      vertex 510.453 -99.4522 200
    endloop
  endfacet
  facet normal 0 0 1
    outer loop
      vertex 685.159 -305.052 200
      vertex 489.547 -99.4522 200
      vertex 606.763 -440.839 200
    endloop
  endfacet
  facet normal 0 0 1
    outer loop
      vertex 469.098 -95.1057 200
      vertex 606.763 -440.839 200
      vertex 489.547 -99.4522 200
    endloop
  endfacet
  facet normal 0 0 1
    outer loop
      vertex 606.763 -440.839 200
      vertex 469.098 -95.1057 200
      vertex 501.848 -557.359 200
    endloop
  endfacet
  facet normal 0 0 1
    outer loop
      vertex 450 -86.6025 200
      vertex 501.848 -557.359 200
      vertex 469.098 -95.1057 200
    endloop
  endfacet
  facet normal 0 0 1
    outer loop
      vertex 433.087 -74.3145 200
      vertex 501.848 -557.359 200
      vertex 450 -86.6025 200
    endloop
  endfacet
  facet normal 0 0 1
    outer loop
      vertex 231.763 -713.292 200
      vertex 433.087 -74.3145 200
      vertex 419.098 -58.7785 200
    endloop
  endfacet
  facet normal 0 0 1
    outer loop
      vertex 78.3963 -745.891 200
      vertex 419.098 -58.7785 200
      vertex 408.645 -40.6737 200
    endloop
  endfacet
  facet normal 0 0 1
    outer loop
      vertex -402.185 -20.7912 200
      vertex 402.185 -20.7912 200
      vertex -400 0 200
    endloop
  endfacet
  facet normal 0 0 1
    outer loop
      vertex 433.087 -74.3145 200
      vertex 375 -649.519 200
      vertex 501.848 -557.359 200
    endloop
  endfacet
  facet normal -0 0 1
    outer loop
      vertex -400 0 200
      vertex 402.185 -20.7912 200
      vertex 400 0 200
    endloop
  endfacet
  facet normal 0 0 1
    outer loop
      vertex -408.645 40.6737 200
      vertex 408.645 40.6737 200
      vertex 78.3963 745.891 200
    endloop
  endfacet
  facet normal 0 0 1
    outer loop
      vertex 408.645 40.6737 200
      vertex -408.645 40.6737 200
      vertex 402.185 20.7912 200
    endloop
  endfacet
  facet normal 0 0 1
    outer loop
      vertex 402.185 -20.7912 200
      vertex -402.185 -20.7912 200
      vertex 408.645 -40.6737 200
    endloop
  endfacet
  facet normal 0 -0 1
    outer loop
      vertex -402.185 20.7912 200
      vertex 402.185 20.7912 200
      vertex -408.645 40.6737 200
    endloop
  endfacet
  facet normal 0 0 1
    outer loop
      vertex 433.087 -74.3145 200
      vertex 231.763 -713.292 200
      vertex 375 -649.519 200
    endloop
  endfacet
  facet normal 0 0 1
    outer loop
      vertex -408.645 40.6737 200
      vertex 78.3963 745.891 200
      vertex -78.3963 745.891 200
    endloop
  endfacet
  facet normal 0 0 1
    outer loop
      vertex 419.098 -58.7785 200
      vertex 78.3963 -745.891 200
      vertex 231.763 -713.292 200
    endloop
  endfacet
  facet normal 0 0 1
    outer loop
      vertex -419.098 58.7785 200
      vertex -78.3963 745.891 200
      vertex -231.763 713.292 200
    endloop
  endfacet
  facet normal 0 0 1
    outer loop
      vertex 408.645 -40.6737 200
      vertex -78.3963 -745.891 200
      vertex 78.3963 -745.891 200
    endloop
  endfacet
  facet normal 0 0 1
    outer loop
      vertex -433.087 74.3145 200
      vertex -231.763 713.292 200
      vertex -375 649.519 200
    endloop
  endfacet
  facet normal 0 0 1
    outer loop
      vertex -408.645 -40.6737 200
      vertex 408.645 -40.6737 200
      vertex -402.185 -20.7912 200
    endloop
  endfacet
  facet normal 0 0 1
    outer loop
      vertex 408.645 -40.6737 200
      vertex -408.645 -40.6737 200
      vertex -78.3963 -745.891 200
    endloop
  endfacet
  facet normal 0 0 1
    outer loop
      vertex 400 0 200
      vertex -402.185 20.7912 200
      vertex -400 0 200
    endloop
  endfacet
  facet normal 0 0 1
    outer loop
      vertex 402.185 20.7912 200
      vertex -402.185 20.7912 200
      vertex 400 0 200
    endloop
  endfacet
  facet normal 0 0 1
    outer loop
      vertex -78.3963 745.891 200
      vertex -419.098 58.7785 200
      vertex -408.645 40.6737 200
    endloop
  endfacet
  facet normal 0 0 1
    outer loop
      vertex -231.763 713.292 200
      vertex -433.087 74.3145 200
      vertex -419.098 58.7785 200
    endloop
  endfacet
  facet normal 0 0 1
    outer loop
      vertex -375 649.519 200
      vertex -450 86.6025 200
      vertex -433.087 74.3145 200
    endloop
  endfacet
  facet normal -0 0 1
    outer loop
      vertex -501.848 557.359 200
      vertex -450 86.6025 200
      vertex -375 649.519 200
    endloop
  endfacet
  facet normal 0 0 1
    outer loop
      vertex -450 86.6025 200
      vertex -501.848 557.359 200
      vertex -469.098 95.1057 200
    endloop
  endfacet
  facet normal -0 0 1
    outer loop
      vertex -606.763 440.839 200
      vertex -469.098 95.1057 200
      vertex -501.848 557.359 200
    endloop
  endfacet
  facet normal 0 0 1
    outer loop
      vertex -469.098 95.1057 200
      vertex -606.763 440.839 200
      vertex -489.547 99.4522 200
    endloop
  endfacet
  facet normal -0 0 1
    outer loop
      vertex -685.159 305.052 200
      vertex -489.547 99.4522 200
      vertex -606.763 440.839 200
    endloop
  endfacet
  facet normal 0 0 1
    outer loop
      vertex -489.547 99.4522 200
      vertex -685.159 305.052 200
      vertex -510.453 99.4522 200
    endloop
  endfacet
  facet normal 0 0 1
    outer loop
      vertex -510.453 99.4522 200
      vertex -685.159 305.052 200
      vertex -530.902 95.1057 200
    endloop
  endfacet
  facet normal 0 0 1
    outer loop
      vertex -530.902 95.1057 200
      vertex -685.159 305.052 200
      vertex -550 86.6025 200
    endloop
  endfacet
  facet normal -0 0 1
    outer loop
      vertex -733.611 155.934 200
      vertex -550 86.6025 200
      vertex -685.159 305.052 200
    endloop
  endfacet
  facet normal 0 0 1
    outer loop
      vertex -550 86.6025 200
      vertex -733.611 155.934 200
      vertex -566.913 74.3145 200
    endloop
  endfacet
  facet normal 0 0 1
    outer loop
      vertex -580.902 58.7785 200
      vertex -733.611 155.934 200
      vertex -591.355 40.6737 200
    endloop
  endfacet
  facet normal 0 0 1
    outer loop
      vertex -566.913 74.3145 200
      vertex -733.611 155.934 200
      vertex -580.902 58.7785 200
    endloop
  endfacet
  facet normal 0.866027 -0.499997 0
    outer loop
      vertex 606.763 -440.839 200
      vertex 685.159 -305.052 0
      vertex 685.159 -305.052 200
    endloop
  endfacet
  facet normal 0.866027 -0.499997 0
    outer loop
      vertex 685.159 -305.052 0
      vertex 606.763 -440.839 200
      vertex 606.763 -440.839 0
    endloop
  endfacet
  facet normal 0.951055 0.309021 0
    outer loop
      vertex 733.611 155.934 200
      vertex 685.159 305.052 0
      vertex 685.159 305.052 200
    endloop
  endfacet
  facet normal 0.951055 0.309021 0
    outer loop
      vertex 685.159 305.052 0
      vertex 733.611 155.934 200
      vertex 733.611 155.934 0
    endloop
  endfacet
  facet normal 0.207911 0.978148 -0
    outer loop
      vertex 231.763 713.292 0
      vertex 78.3963 745.891 200
      vertex 231.763 713.292 200
    endloop
  endfacet
  facet normal 0.207911 0.978148 0
    outer loop
      vertex 78.3963 745.891 200
      vertex 231.763 713.292 0
      vertex 78.3963 745.891 0
    endloop
  endfacet
  facet normal 0.743145 -0.66913 0
    outer loop
      vertex 501.848 -557.359 200
      vertex 606.763 -440.839 0
      vertex 606.763 -440.839 200
    endloop
  endfacet
  facet normal 0.743145 -0.66913 0
    outer loop
      vertex 606.763 -440.839 0
      vertex 501.848 -557.359 200
      vertex 501.848 -557.359 0
    endloop
  endfacet
  facet normal 0.406735 0.913546 -0
    outer loop
      vertex 375 649.519 0
      vertex 231.763 713.292 200
      vertex 375 649.519 200
    endloop
  endfacet
  facet normal 0.406735 0.913546 0
    outer loop
      vertex 231.763 713.292 200
      vertex 375 649.519 0
      vertex 231.763 713.292 0
    endloop
  endfacet
  facet normal 0.994522 -0.104526 0
    outer loop
      vertex 733.611 -155.934 200
      vertex 750 0 0
      vertex 750 0 200
    endloop
  endfacet
  facet normal 0.994522 -0.104526 0
    outer loop
      vertex 750 0 0
      vertex 733.611 -155.934 200
      vertex 733.611 -155.934 0
    endloop
  endfacet
  facet normal 0 1 -0
    outer loop
      vertex 78.3963 745.891 0
      vertex -78.3963 745.891 200
      vertex 78.3963 745.891 200
    endloop
  endfacet
  facet normal 0 1 0
    outer loop
      vertex -78.3963 745.891 200
      vertex 78.3963 745.891 0
      vertex -78.3963 745.891 0
    endloop
  endfacet
  facet normal 0.994522 0.104526 0
    outer loop
      vertex 750 0 200
      vertex 733.611 155.934 0
      vertex 733.611 155.934 200
    endloop
  endfacet
  facet normal 0.994522 0.104526 0
    outer loop
      vertex 733.611 155.934 0
      vertex 750 0 200
      vertex 750 0 0
    endloop
  endfacet
  facet normal -0.207911 0.978148 0
    outer loop
      vertex -78.3963 745.891 0
      vertex -231.763 713.292 200
      vertex -78.3963 745.891 200
    endloop
  endfacet
  facet normal -0.207911 0.978148 0
    outer loop
      vertex -231.763 713.292 200
      vertex -78.3963 745.891 0
      vertex -231.763 713.292 0
    endloop
  endfacet
  facet normal 0.866027 0.499997 0
    outer loop
      vertex 685.159 305.052 200
      vertex 606.763 440.839 0
      vertex 606.763 440.839 200
    endloop
  endfacet
  facet normal 0.866027 0.499997 0
    outer loop
      vertex 606.763 440.839 0
      vertex 685.159 305.052 200
      vertex 685.159 305.052 0
    endloop
  endfacet
  facet normal 0.951055 -0.309021 0
    outer loop
      vertex 685.159 -305.052 200
      vertex 733.611 -155.934 0
      vertex 733.611 -155.934 200
    endloop
  endfacet
  facet normal 0.951055 -0.309021 0
    outer loop
      vertex 733.611 -155.934 0
      vertex 685.159 -305.052 200
      vertex 685.159 -305.052 0
    endloop
  endfacet
  facet normal -0.587783 0.809018 0
    outer loop
      vertex -375 649.519 0
      vertex -501.848 557.359 200
      vertex -375 649.519 200
    endloop
  endfacet
  facet normal -0.587783 0.809018 0
    outer loop
      vertex -501.848 557.359 200
      vertex -375 649.519 0
      vertex -501.848 557.359 0
    endloop
  endfacet
  facet normal 0 -1 0
    outer loop
      vertex -78.3963 -745.891 0
      vertex 78.3963 -745.891 200
      vertex -78.3963 -745.891 200
    endloop
  endfacet
  facet normal 0 -1 -0
    outer loop
      vertex 78.3963 -745.891 200
      vertex -78.3963 -745.891 0
      vertex 78.3963 -745.891 0
    endloop
  endfacet
  facet normal 0.743145 0.66913 0
    outer loop
      vertex 606.763 440.839 200
      vertex 501.848 557.359 0
      vertex 501.848 557.359 200
    endloop
  endfacet
  facet normal 0.743145 0.66913 0
    outer loop
      vertex 501.848 557.359 0
      vertex 606.763 440.839 200
      vertex 606.763 440.839 0
    endloop
  endfacet
  facet normal -0.406735 -0.913546 0
    outer loop
      vertex -375 -649.519 0
      vertex -231.763 -713.292 200
      vertex -375 -649.519 200
    endloop
  endfacet
  facet normal -0.406735 -0.913546 -0
    outer loop
      vertex -231.763 -713.292 200
      vertex -375 -649.519 0
      vertex -231.763 -713.292 0
    endloop
  endfacet
  facet normal -0.951055 0.309021 0
    outer loop
      vertex -733.611 155.934 0
      vertex -685.159 305.052 200
      vertex -685.159 305.052 0
    endloop
  endfacet
  facet normal -0.951055 0.309021 0
    outer loop
      vertex -685.159 305.052 200
      vertex -733.611 155.934 0
      vertex -733.611 155.934 200
    endloop
  endfacet
  facet normal -0.207911 -0.978148 0
    outer loop
      vertex -231.763 -713.292 0
      vertex -78.3963 -745.891 200
      vertex -231.763 -713.292 200
    endloop
  endfacet
  facet normal -0.207911 -0.978148 -0
    outer loop
      vertex -78.3963 -745.891 200
      vertex -231.763 -713.292 0
      vertex -78.3963 -745.891 0
    endloop
  endfacet
  facet normal 0.587783 -0.809018 0
    outer loop
      vertex 375 -649.519 0
      vertex 501.848 -557.359 200
      vertex 375 -649.519 200
    endloop
  endfacet
  facet normal 0.587783 -0.809018 0
    outer loop
      vertex 501.848 -557.359 200
      vertex 375 -649.519 0
      vertex 501.848 -557.359 0
    endloop
  endfacet
  facet normal 0.406735 -0.913546 0
    outer loop
      vertex 231.763 -713.292 0
      vertex 375 -649.519 200
      vertex 231.763 -713.292 200
    endloop
  endfacet
  facet normal 0.406735 -0.913546 0
    outer loop
      vertex 375 -649.519 200
      vertex 231.763 -713.292 0
      vertex 375 -649.519 0
    endloop
  endfacet
  facet normal -0.743145 0.66913 0
    outer loop
      vertex -606.763 440.839 0
      vertex -501.848 557.359 200
      vertex -501.848 557.359 0
    endloop
  endfacet
  facet normal -0.743145 0.66913 0
    outer loop
      vertex -501.848 557.359 200
      vertex -606.763 440.839 0
      vertex -606.763 440.839 200
    endloop
  endfacet
  facet normal 0.587783 0.809018 -0
    outer loop
      vertex 501.848 557.359 0
      vertex 375 649.519 200
      vertex 501.848 557.359 200
    endloop
  endfacet
  facet normal 0.587783 0.809018 0
    outer loop
      vertex 375 649.519 200
      vertex 501.848 557.359 0
      vertex 375 649.519 0
    endloop
  endfacet
  facet normal -0.406735 0.913546 0
    outer loop
      vertex -231.763 713.292 0
      vertex -375 649.519 200
      vertex -231.763 713.292 200
    endloop
  endfacet
  facet normal -0.406735 0.913546 0
    outer loop
      vertex -375 649.519 200
      vertex -231.763 713.292 0
      vertex -375 649.519 0
    endloop
  endfacet
  facet normal -0.951055 -0.309021 0
    outer loop
      vertex -685.159 -305.052 0
      vertex -733.611 -155.934 200
      vertex -733.611 -155.934 0
    endloop
  endfacet
  facet normal -0.951055 -0.309021 0
    outer loop
      vertex -733.611 -155.934 200
      vertex -685.159 -305.052 0
      vertex -685.159 -305.052 200
    endloop
  endfacet
  facet normal -0.994522 0.104526 0
    outer loop
      vertex -750 0 0
      vertex -733.611 155.934 200
      vertex -733.611 155.934 0
    endloop
  endfacet
  facet normal -0.994522 0.104526 0
    outer loop
      vertex -733.611 155.934 200
      vertex -750 0 0
      vertex -750 0 200
    endloop
  endfacet
  facet normal -0.866027 -0.499997 0
    outer loop
      vertex -606.763 -440.839 0
      vertex -685.159 -305.052 200
      vertex -685.159 -305.052 0
    endloop
  endfacet
  facet normal -0.866027 -0.499997 0
    outer loop
      vertex -685.159 -305.052 200
      vertex -606.763 -440.839 0
      vertex -606.763 -440.839 200
    endloop
  endfacet
  facet normal -0.743145 -0.66913 0
    outer loop
      vertex -501.848 -557.359 0
      vertex -606.763 -440.839 200
      vertex -606.763 -440.839 0
    endloop
  endfacet
  facet normal -0.743145 -0.66913 0
    outer loop
      vertex -606.763 -440.839 200
      vertex -501.848 -557.359 0
      vertex -501.848 -557.359 200
    endloop
  endfacet
  facet normal 0.207911 -0.978148 0
    outer loop
      vertex 78.3963 -745.891 0
      vertex 231.763 -713.292 200
      vertex 78.3963 -745.891 200
    endloop
  endfacet
  facet normal 0.207911 -0.978148 0
    outer loop
      vertex 231.763 -713.292 200
      vertex 78.3963 -745.891 0
      vertex 231.763 -713.292 0
    endloop
  endfacet
  facet normal -0.994522 -0.104526 0
    outer loop
      vertex -733.611 -155.934 0
      vertex -750 0 200
      vertex -750 0 0
    endloop
  endfacet
  facet normal -0.994522 -0.104526 0
    outer loop
      vertex -750 0 200
      vertex -733.611 -155.934 0
      vertex -733.611 -155.934 200
    endloop
  endfacet
  facet normal -0.587783 -0.809018 0
    outer loop
      vertex -501.848 -557.359 0
      vertex -375 -649.519 200
      vertex -501.848 -557.359 200
    endloop
  endfacet
  facet normal -0.587783 -0.809018 -0
    outer loop
      vertex -375 -649.519 200
      vertex -501.848 -557.359 0
      vertex -375 -649.519 0
    endloop
  endfacet
  facet normal 0 0 -1
    outer loop
      vertex 591.355 -40.6737 0
      vertex 750 0 0
      vertex 733.611 -155.934 0
    endloop
  endfacet
  facet normal 0 0 -1
    outer loop
      vertex 550 -86.6025 0
      vertex 733.611 -155.934 0
      vertex 685.159 -305.052 0
    endloop
  endfacet
  facet normal -0 0 -1
    outer loop
      vertex 750 0 0
      vertex 597.815 -20.7912 0
      vertex 600 0 0
    endloop
  endfacet
  facet normal 0 0 -1
    outer loop
      vertex 411.095 -183.031 0
      vertex 685.159 -305.052 0
      vertex 606.763 -440.839 0
    endloop
  endfacet
  facet normal 0 0 -1
    outer loop
      vertex 597.815 20.7912 0
      vertex 750 0 0
      vertex 600 0 0
    endloop
  endfacet
  facet normal 0 0 -1
    outer loop
      vertex 750 0 0
      vertex 591.355 40.6737 0
      vertex 733.611 155.934 0
    endloop
  endfacet
  facet normal 0 0 -1
    outer loop
      vertex 591.355 40.6737 0
      vertex 750 0 0
      vertex 597.815 20.7912 0
    endloop
  endfacet
  facet normal 0 0 -1
    outer loop
      vertex 750 0 0
      vertex 591.355 -40.6737 0
      vertex 597.815 -20.7912 0
    endloop
  endfacet
  facet normal 0 0 -1
    outer loop
      vertex 733.611 -155.934 0
      vertex 580.902 -58.7785 0
      vertex 591.355 -40.6737 0
    endloop
  endfacet
  facet normal 0 0 -1
    outer loop
      vertex 733.611 -155.934 0
      vertex 566.913 -74.3145 0
      vertex 580.902 -58.7785 0
    endloop
  endfacet
  facet normal 0 0 -1
    outer loop
      vertex 733.611 -155.934 0
      vertex 550 -86.6025 0
      vertex 566.913 -74.3145 0
    endloop
  endfacet
  facet normal 0 0 -1
    outer loop
      vertex 685.159 -305.052 0
      vertex 530.902 -95.1057 0
      vertex 550 -86.6025 0
    endloop
  endfacet
  facet normal 0 -0 -1
    outer loop
      vertex 510.453 -99.4522 0
      vertex 685.159 -305.052 0
      vertex 411.095 -183.031 0
    endloop
  endfacet
  facet normal 0 0 -1
    outer loop
      vertex 364.058 -264.503 0
      vertex 606.763 -440.839 0
      vertex 501.848 -557.359 0
    endloop
  endfacet
  facet normal 0 0 -1
    outer loop
      vertex 685.159 -305.052 0
      vertex 510.453 -99.4522 0
      vertex 530.902 -95.1057 0
    endloop
  endfacet
  facet normal -0 0 -1
    outer loop
      vertex 510.453 -99.4522 0
      vertex 411.095 -183.031 0
      vertex 489.547 -99.4522 0
    endloop
  endfacet
  facet normal -0 0 -1
    outer loop
      vertex 489.547 -99.4522 0
      vertex 411.095 -183.031 0
      vertex 469.098 -95.1057 0
    endloop
  endfacet
  facet normal 0 -0 -1
    outer loop
      vertex 440.166 -93.5603 0
      vertex 469.098 -95.1057 0
      vertex 411.095 -183.031 0
    endloop
  endfacet
  facet normal -0 0 -1
    outer loop
      vertex 450 -86.6025 0
      vertex 440.166 -93.5603 0
      vertex 441.543 -80.4585 0
    endloop
  endfacet
  facet normal 0 0 -1
    outer loop
      vertex 469.098 -95.1057 0
      vertex 440.166 -93.5603 0
      vertex 450 -86.6025 0
    endloop
  endfacet
  facet normal 0 0 -1
    outer loop
      vertex 301.109 -334.415 0
      vertex 501.848 -557.359 0
      vertex 375 -649.519 0
    endloop
  endfacet
  facet normal 0 0 -1
    outer loop
      vertex 606.763 -440.839 0
      vertex 364.058 -264.503 0
      vertex 411.095 -183.031 0
    endloop
  endfacet
  facet normal 0 0 -1
    outer loop
      vertex 501.848 -557.359 0
      vertex 301.109 -334.415 0
      vertex 364.058 -264.503 0
    endloop
  endfacet
  facet normal 0 0 -1
    outer loop
      vertex 225 -389.711 0
      vertex 375 -649.519 0
      vertex 231.763 -713.292 0
    endloop
  endfacet
  facet normal 0 0 -1
    outer loop
      vertex 375 -649.519 0
      vertex 225 -389.711 0
      vertex 301.109 -334.415 0
    endloop
  endfacet
  facet normal 0 0 -1
    outer loop
      vertex 231.763 -713.292 0
      vertex 139.058 -427.975 0
      vertex 225 -389.711 0
    endloop
  endfacet
  facet normal 0 0 -1
    outer loop
      vertex 78.3963 -745.891 0
      vertex 139.058 -427.975 0
      vertex 231.763 -713.292 0
    endloop
  endfacet
  facet normal 0 0 -1
    outer loop
      vertex 78.3963 -745.891 0
      vertex 47.0378 -447.535 0
      vertex 139.058 -427.975 0
    endloop
  endfacet
  facet normal 0 0 -1
    outer loop
      vertex 78.3963 -745.891 0
      vertex -47.0378 -447.535 0
      vertex 47.0378 -447.535 0
    endloop
  endfacet
  facet normal 0 0 -1
    outer loop
      vertex -78.3963 -745.891 0
      vertex -47.0378 -447.535 0
      vertex 78.3963 -745.891 0
    endloop
  endfacet
  facet normal 0 0 -1
    outer loop
      vertex -78.3963 -745.891 0
      vertex -139.058 -427.975 0
      vertex -47.0378 -447.535 0
    endloop
  endfacet
  facet normal 0 0 -1
    outer loop
      vertex -231.763 -713.292 0
      vertex -139.058 -427.975 0
      vertex -78.3963 -745.891 0
    endloop
  endfacet
  facet normal -0 0 -1
    outer loop
      vertex -139.058 -427.975 0
      vertex -231.763 -713.292 0
      vertex -225 -389.711 0
    endloop
  endfacet
  facet normal 0 0 -1
    outer loop
      vertex -375 -649.519 0
      vertex -225 -389.711 0
      vertex -231.763 -713.292 0
    endloop
  endfacet
  facet normal -0 0 -1
    outer loop
      vertex -225 -389.711 0
      vertex -375 -649.519 0
      vertex -301.109 -334.415 0
    endloop
  endfacet
  facet normal 0 0 -1
    outer loop
      vertex -501.848 -557.359 0
      vertex -301.109 -334.415 0
      vertex -375 -649.519 0
    endloop
  endfacet
  facet normal -0 0 -1
    outer loop
      vertex -301.109 -334.415 0
      vertex -501.848 -557.359 0
      vertex -364.058 -264.503 0
    endloop
  endfacet
  facet normal 0 0 -1
    outer loop
      vertex -606.763 -440.839 0
      vertex -364.058 -264.503 0
      vertex -501.848 -557.359 0
    endloop
  endfacet
  facet normal 0 0 -1
    outer loop
      vertex -440.166 -93.5603 0
      vertex -450 -86.6025 0
      vertex -441.543 -80.4585 0
    endloop
  endfacet
  facet normal -0 0 -1
    outer loop
      vertex -364.058 -264.503 0
      vertex -606.763 -440.839 0
      vertex -411.095 -183.031 0
    endloop
  endfacet
  facet normal 0 0 -1
    outer loop
      vertex -685.159 -305.052 0
      vertex -411.095 -183.031 0
      vertex -606.763 -440.839 0
    endloop
  endfacet
  facet normal -0 0 -1
    outer loop
      vertex -440.166 -93.5603 0
      vertex -469.098 -95.1057 0
      vertex -450 -86.6025 0
    endloop
  endfacet
  facet normal 0 -0 -1
    outer loop
      vertex -469.098 -95.1057 0
      vertex -411.095 -183.031 0
      vertex -489.547 -99.4522 0
    endloop
  endfacet
  facet normal 0 0 -1
    outer loop
      vertex -411.095 -183.031 0
      vertex -469.098 -95.1057 0
      vertex -440.166 -93.5603 0
    endloop
  endfacet
  facet normal 0 -0 -1
    outer loop
      vertex -510.453 -99.4522 0
      vertex -411.095 -183.031 0
      vertex -685.159 -305.052 0
    endloop
  endfacet
  facet normal 0 0 -1
    outer loop
      vertex -411.095 -183.031 0
      vertex -510.453 -99.4522 0
      vertex -489.547 -99.4522 0
    endloop
  endfacet
  facet normal -0 0 -1
    outer loop
      vertex -510.453 -99.4522 0
      vertex -685.159 -305.052 0
      vertex -530.902 -95.1057 0
    endloop
  endfacet
  facet normal -0 0 -1
    outer loop
      vertex -530.902 -95.1057 0
      vertex -685.159 -305.052 0
      vertex -550 -86.6025 0
    endloop
  endfacet
  facet normal 0 0 -1
    outer loop
      vertex -733.611 -155.934 0
      vertex -550 -86.6025 0
      vertex -685.159 -305.052 0
    endloop
  endfacet
  facet normal -0 0 -1
    outer loop
      vertex -550 -86.6025 0
      vertex -733.611 -155.934 0
      vertex -566.913 -74.3145 0
    endloop
  endfacet
  facet normal -0 0 -1
    outer loop
      vertex -580.902 -58.7785 0
      vertex -733.611 -155.934 0
      vertex -591.355 -40.6737 0
    endloop
  endfacet
  facet normal -0 0 -1
    outer loop
      vertex -566.913 -74.3145 0
      vertex -733.611 -155.934 0
      vertex -580.902 -58.7785 0
    endloop
  endfacet
  facet normal 0 0 -1
    outer loop
      vertex 580.902 58.7785 0
      vertex 733.611 155.934 0
      vertex 591.355 40.6737 0
    endloop
  endfacet
  facet normal 0 0 -1
    outer loop
      vertex 566.913 74.3145 0
      vertex 733.611 155.934 0
      vertex 580.902 58.7785 0
    endloop
  endfacet
  facet normal 0 0 -1
    outer loop
      vertex 550 86.6025 0
      vertex 733.611 155.934 0
      vertex 566.913 74.3145 0
    endloop
  endfacet
  facet normal -0 0 -1
    outer loop
      vertex 733.611 155.934 0
      vertex 550 86.6025 0
      vertex 685.159 305.052 0
    endloop
  endfacet
  facet normal 0 0 -1
    outer loop
      vertex 530.902 95.1057 0
      vertex 685.159 305.052 0
      vertex 550 86.6025 0
    endloop
  endfacet
  facet normal 0 0 -1
    outer loop
      vertex 510.453 99.4522 0
      vertex 685.159 305.052 0
      vertex 530.902 95.1057 0
    endloop
  endfacet
  facet normal 0 0 -1
    outer loop
      vertex 685.159 305.052 0
      vertex 510.453 99.4522 0
      vertex 411.095 183.031 0
    endloop
  endfacet
  facet normal -0 0 -1
    outer loop
      vertex 685.159 305.052 0
      vertex 411.095 183.031 0
      vertex 606.763 440.839 0
    endloop
  endfacet
  facet normal 0 0 -1
    outer loop
      vertex 411.095 183.031 0
      vertex 510.453 99.4522 0
      vertex 489.547 99.4522 0
    endloop
  endfacet
  facet normal 0 0 -1
    outer loop
      vertex 411.095 183.031 0
      vertex 489.547 99.4522 0
      vertex 469.098 95.1057 0
    endloop
  endfacet
  facet normal 0 0 -1
    outer loop
      vertex 440.166 93.5603 0
      vertex 469.098 95.1057 0
      vertex 450 86.6025 0
    endloop
  endfacet
  facet normal 0 0 -1
    outer loop
      vertex 440.166 93.5603 0
      vertex 450 86.6025 0
      vertex 441.543 80.4585 0
    endloop
  endfacet
  facet normal -0 0 -1
    outer loop
      vertex 469.098 95.1057 0
      vertex 440.166 93.5603 0
      vertex 411.095 183.031 0
    endloop
  endfacet
  facet normal 0 0 -1
    outer loop
      vertex 364.058 264.503 0
      vertex 606.763 440.839 0
      vertex 411.095 183.031 0
    endloop
  endfacet
  facet normal -0 0 -1
    outer loop
      vertex 606.763 440.839 0
      vertex 364.058 264.503 0
      vertex 501.848 557.359 0
    endloop
  endfacet
  facet normal 0 0 -1
    outer loop
      vertex 301.109 334.415 0
      vertex 501.848 557.359 0
      vertex 364.058 264.503 0
    endloop
  endfacet
  facet normal -0 0 -1
    outer loop
      vertex 501.848 557.359 0
      vertex 301.109 334.415 0
      vertex 375 649.519 0
    endloop
  endfacet
  facet normal 0 0 -1
    outer loop
      vertex 225 389.711 0
      vertex 375 649.519 0
      vertex 301.109 334.415 0
    endloop
  endfacet
  facet normal -0 0 -1
    outer loop
      vertex 375 649.519 0
      vertex 225 389.711 0
      vertex 231.763 713.292 0
    endloop
  endfacet
  facet normal 0 0 -1
    outer loop
      vertex 139.058 427.975 0
      vertex 231.763 713.292 0
      vertex 225 389.711 0
    endloop
  endfacet
  facet normal 0 0 -1
    outer loop
      vertex 139.058 427.975 0
      vertex 78.3963 745.891 0
      vertex 231.763 713.292 0
    endloop
  endfacet
  facet normal 0 0 -1
    outer loop
      vertex 47.0378 447.535 0
      vertex 78.3963 745.891 0
      vertex 139.058 427.975 0
    endloop
  endfacet
  facet normal 0 0 -1
    outer loop
      vertex -47.0378 447.535 0
      vertex 78.3963 745.891 0
      vertex 47.0378 447.535 0
    endloop
  endfacet
  facet normal 0 0 -1
    outer loop
      vertex -47.0378 447.535 0
      vertex -78.3963 745.891 0
      vertex 78.3963 745.891 0
    endloop
  endfacet
  facet normal 0 0 -1
    outer loop
      vertex -139.058 427.975 0
      vertex -78.3963 745.891 0
      vertex -47.0378 447.535 0
    endloop
  endfacet
  facet normal 0 0 -1
    outer loop
      vertex -231.763 713.292 0
      vertex -139.058 427.975 0
      vertex -225 389.711 0
    endloop
  endfacet
  facet normal 0 0 -1
    outer loop
      vertex -139.058 427.975 0
      vertex -231.763 713.292 0
      vertex -78.3963 745.891 0
    endloop
  endfacet
  facet normal 0 0 -1
    outer loop
      vertex -375 649.519 0
      vertex -225 389.711 0
      vertex -301.109 334.415 0
    endloop
  endfacet
  facet normal 0 0 -1
    outer loop
      vertex -501.848 557.359 0
      vertex -301.109 334.415 0
      vertex -364.058 264.503 0
    endloop
  endfacet
  facet normal 0 0 -1
    outer loop
      vertex -225 389.711 0
      vertex -375 649.519 0
      vertex -231.763 713.292 0
    endloop
  endfacet
  facet normal 0 0 -1
    outer loop
      vertex -606.763 440.839 0
      vertex -364.058 264.503 0
      vertex -411.095 183.031 0
    endloop
  endfacet
  facet normal 0 0 -1
    outer loop
      vertex -469.098 95.1057 0
      vertex -411.095 183.031 0
      vertex -440.166 93.5603 0
    endloop
  endfacet
  facet normal 0 0 -1
    outer loop
      vertex -450 86.6025 0
      vertex -440.166 93.5603 0
      vertex -441.543 80.4585 0
    endloop
  endfacet
  facet normal 0 0 -1
    outer loop
      vertex -469.098 95.1057 0
      vertex -440.166 93.5603 0
      vertex -450 86.6025 0
    endloop
  endfacet
  facet normal 0 0 -1
    outer loop
      vertex -411.095 183.031 0
      vertex -469.098 95.1057 0
      vertex -489.547 99.4522 0
    endloop
  endfacet
  facet normal 0 0 -1
    outer loop
      vertex -510.453 99.4522 0
      vertex -411.095 183.031 0
      vertex -489.547 99.4522 0
    endloop
  endfacet
  facet normal 0 0 -1
    outer loop
      vertex -301.109 334.415 0
      vertex -501.848 557.359 0
      vertex -375 649.519 0
    endloop
  endfacet
  facet normal -0 0 -1
    outer loop
      vertex -411.095 183.031 0
      vertex -510.453 99.4522 0
      vertex -685.159 305.052 0
    endloop
  endfacet
  facet normal 0 0 -1
    outer loop
      vertex -685.159 305.052 0
      vertex -510.453 99.4522 0
      vertex -530.902 95.1057 0
    endloop
  endfacet
  facet normal 0 0 -1
    outer loop
      vertex -685.159 305.052 0
      vertex -530.902 95.1057 0
      vertex -550 86.6025 0
    endloop
  endfacet
  facet normal 0 0 -1
    outer loop
      vertex -733.611 155.934 0
      vertex -550 86.6025 0
      vertex -566.913 74.3145 0
    endloop
  endfacet
  facet normal 0 0 -1
    outer loop
      vertex -733.611 155.934 0
      vertex -566.913 74.3145 0
      vertex -580.902 58.7785 0
    endloop
  endfacet
  facet normal 0 0 -1
    outer loop
      vertex -733.611 155.934 0
      vertex -580.902 58.7785 0
      vertex -591.355 40.6737 0
    endloop
  endfacet
  facet normal 0 0 -1
    outer loop
      vertex -750 0 0
      vertex -591.355 40.6737 0
      vertex -597.815 20.7912 0
    endloop
  endfacet
  facet normal 0 0 -1
    outer loop
      vertex -364.058 264.503 0
      vertex -606.763 440.839 0
      vertex -501.848 557.359 0
    endloop
  endfacet
  facet normal 0 0 -1
    outer loop
      vertex -750 0 0
      vertex -597.815 20.7912 0
      vertex -600 0 0
    endloop
  endfacet
  facet normal 0 0 -1
    outer loop
      vertex -750 0 0
      vertex -591.355 -40.6737 0
      vertex -733.611 -155.934 0
    endloop
  endfacet
  facet normal 0 0 -1
    outer loop
      vertex -591.355 -40.6737 0
      vertex -750 0 0
      vertex -597.815 -20.7912 0
    endloop
  endfacet
  facet normal 0 0 -1
    outer loop
      vertex -411.095 183.031 0
      vertex -685.159 305.052 0
      vertex -606.763 440.839 0
    endloop
  endfacet
  facet normal 0 0 -1
    outer loop
      vertex -597.815 -20.7912 0
      vertex -750 0 0
      vertex -600 0 0
    endloop
  endfacet
  facet normal 0 0 -1
    outer loop
      vertex -550 86.6025 0
      vertex -733.611 155.934 0
      vertex -685.159 305.052 0
    endloop
  endfacet
  facet normal -0 0 -1
    outer loop
      vertex -591.355 40.6737 0
      vertex -750 0 0
      vertex -733.611 155.934 0
    endloop
  endfacet
  facet normal -0.866027 0.499997 0
    outer loop
      vertex -685.159 305.052 0
      vertex -606.763 440.839 200
      vertex -606.763 440.839 0
    endloop
  endfacet
  facet normal -0.866027 0.499997 0
    outer loop
      vertex -606.763 440.839 200
      vertex -685.159 305.052 0
      vertex -685.159 305.052 200
    endloop
  endfacet
  facet normal 0.951056 0.309019 0
    outer loop
      vertex 440.166 93.5603 0
      vertex 411.095 183.031 -700
      vertex 411.095 183.031 0
    endloop
  endfacet
  facet normal 0.951056 0.309019 0
    outer loop
      vertex 411.095 183.031 -700
      vertex 440.166 93.5603 0
      vertex 440.166 93.5603 -700
    endloop
  endfacet
  facet normal 0.994522 0.104524 -0
    outer loop
      vertex 441.543 80.4585 -1
      vertex 440.166 93.5603 0
      vertex 441.543 80.4585 0
    endloop
  endfacet
  facet normal 0.994522 0.104524 0
    outer loop
      vertex 440.166 93.5603 0
      vertex 441.543 80.4585 -1
      vertex 440.166 93.5603 -700
    endloop
  endfacet
  facet normal 0.994521 0.104534 -0
    outer loop
      vertex 450 0 -700
      vertex 441.543 80.4585 -1
      vertex 450 0 -1
    endloop
  endfacet
  facet normal 0.994521 0.104533 1.6071e-07
    outer loop
      vertex 441.543 80.4585 -1
      vertex 450 0 -700
      vertex 440.166 93.5603 -700
    endloop
  endfacet
  facet normal 0.866029 0.499993 0
    outer loop
      vertex 411.095 183.031 0
      vertex 364.058 264.503 -700
      vertex 364.058 264.503 0
    endloop
  endfacet
  facet normal 0.866029 0.499993 0
    outer loop
      vertex 364.058 264.503 -700
      vertex 411.095 183.031 0
      vertex 411.095 183.031 -700
    endloop
  endfacet
  facet normal -0.406738 0.913545 0
    outer loop
      vertex -139.058 427.975 -700
      vertex -225 389.711 0
      vertex -139.058 427.975 0
    endloop
  endfacet
  facet normal -0.406738 0.913545 0
    outer loop
      vertex -225 389.711 0
      vertex -139.058 427.975 -700
      vertex -225 389.711 -700
    endloop
  endfacet
  facet normal 0.406738 0.913545 -0
    outer loop
      vertex 225 389.711 -700
      vertex 139.058 427.975 0
      vertex 225 389.711 0
    endloop
  endfacet
  facet normal 0.406738 0.913545 0
    outer loop
      vertex 139.058 427.975 0
      vertex 225 389.711 -700
      vertex 139.058 427.975 -700
    endloop
  endfacet
  facet normal 0.994522 -0.104524 0
    outer loop
      vertex 441.543 -80.4585 0
      vertex 440.166 -93.5603 0
      vertex 441.543 -80.4585 -1
    endloop
  endfacet
  facet normal 0.994521 -0.104534 0
    outer loop
      vertex 441.543 -80.4585 -1
      vertex 450 0 -700
      vertex 450 0 -1
    endloop
  endfacet
  facet normal 0.994522 -0.104524 0
    outer loop
      vertex 440.166 -93.5603 -700
      vertex 441.543 -80.4585 -1
      vertex 440.166 -93.5603 0
    endloop
  endfacet
  facet normal 0.994521 -0.104533 1.6071e-07
    outer loop
      vertex 441.543 -80.4585 -1
      vertex 440.166 -93.5603 -700
      vertex 450 0 -700
    endloop
  endfacet
  facet normal -0.743145 0.66913 0
    outer loop
      vertex -364.058 264.503 -700
      vertex -301.109 334.415 0
      vertex -301.109 334.415 -700
    endloop
  endfacet
  facet normal -0.743145 0.66913 0
    outer loop
      vertex -301.109 334.415 0
      vertex -364.058 264.503 -700
      vertex -364.058 264.503 0
    endloop
  endfacet
  facet normal -0.587782 0.809019 0
    outer loop
      vertex -225 389.711 -700
      vertex -301.109 334.415 0
      vertex -225 389.711 0
    endloop
  endfacet
  facet normal -0.587782 0.809019 0
    outer loop
      vertex -301.109 334.415 0
      vertex -225 389.711 -700
      vertex -301.109 334.415 -700
    endloop
  endfacet
  facet normal 0.743145 0.66913 0
    outer loop
      vertex 364.058 264.503 0
      vertex 301.109 334.415 -700
      vertex 301.109 334.415 0
    endloop
  endfacet
  facet normal 0.743145 0.66913 0
    outer loop
      vertex 301.109 334.415 -700
      vertex 364.058 264.503 0
      vertex 364.058 264.503 -700
    endloop
  endfacet
  facet normal 0 -1 0
    outer loop
      vertex -47.0378 -447.535 -700
      vertex 47.0378 -447.535 0
      vertex -47.0378 -447.535 0
    endloop
  endfacet
  facet normal 0 -1 -0
    outer loop
      vertex 47.0378 -447.535 0
      vertex -47.0378 -447.535 -700
      vertex 47.0378 -447.535 -700
    endloop
  endfacet
  facet normal 0.951056 -0.309019 0
    outer loop
      vertex 411.095 -183.031 0
      vertex 440.166 -93.5603 -700
      vertex 440.166 -93.5603 0
    endloop
  endfacet
  facet normal 0.951056 -0.309019 0
    outer loop
      vertex 440.166 -93.5603 -700
      vertex 411.095 -183.031 0
      vertex 411.095 -183.031 -700
    endloop
  endfacet
  facet normal -0.406738 -0.913545 0
    outer loop
      vertex -225 -389.711 -700
      vertex -139.058 -427.975 0
      vertex -225 -389.711 0
    endloop
  endfacet
  facet normal -0.406738 -0.913545 -0
    outer loop
      vertex -139.058 -427.975 0
      vertex -225 -389.711 -700
      vertex -139.058 -427.975 -700
    endloop
  endfacet
  facet normal -0.866029 -0.499993 0
    outer loop
      vertex -364.058 -264.503 -700
      vertex -411.095 -183.031 0
      vertex -411.095 -183.031 -700
    endloop
  endfacet
  facet normal -0.866029 -0.499993 0
    outer loop
      vertex -411.095 -183.031 0
      vertex -364.058 -264.503 -700
      vertex -364.058 -264.503 0
    endloop
  endfacet
  facet normal -0.951056 0.309019 0
    outer loop
      vertex -440.166 93.5603 -700
      vertex -411.095 183.031 0
      vertex -411.095 183.031 -700
    endloop
  endfacet
  facet normal -0.951056 0.309019 0
    outer loop
      vertex -411.095 183.031 0
      vertex -440.166 93.5603 -700
      vertex -440.166 93.5603 0
    endloop
  endfacet
  facet normal -0.207917 -0.978147 0
    outer loop
      vertex -139.058 -427.975 -700
      vertex -47.0378 -447.535 0
      vertex -139.058 -427.975 0
    endloop
  endfacet
  facet normal -0.207917 -0.978147 -0
    outer loop
      vertex -47.0378 -447.535 0
      vertex -139.058 -427.975 -700
      vertex -47.0378 -447.535 -700
    endloop
  endfacet
  facet normal -0.951056 -0.309019 0
    outer loop
      vertex -411.095 -183.031 -700
      vertex -440.166 -93.5603 0
      vertex -440.166 -93.5603 -700
    endloop
  endfacet
  facet normal -0.951056 -0.309019 0
    outer loop
      vertex -440.166 -93.5603 0
      vertex -411.095 -183.031 -700
      vertex -411.095 -183.031 0
    endloop
  endfacet
  facet normal -0.994522 0.104524 0
    outer loop
      vertex -440.166 93.5603 -700
      vertex -441.543 80.4585 -1
      vertex -440.166 93.5603 0
    endloop
  endfacet
  facet normal -0.994521 0.104533 1.6071e-07
    outer loop
      vertex -450 0 -700
      vertex -441.543 80.4585 -1
      vertex -440.166 93.5603 -700
    endloop
  endfacet
  facet normal -0.994521 0.104534 0
    outer loop
      vertex -441.543 80.4585 -1
      vertex -450 0 -700
      vertex -450 0 -1
    endloop
  endfacet
  facet normal -0.994522 0.104524 0
    outer loop
      vertex -440.166 93.5603 0
      vertex -441.543 80.4585 -1
      vertex -441.543 80.4585 0
    endloop
  endfacet
  facet normal 0 1 -0
    outer loop
      vertex 47.0378 447.535 -700
      vertex -47.0378 447.535 0
      vertex 47.0378 447.535 0
    endloop
  endfacet
  facet normal 0 1 0
    outer loop
      vertex -47.0378 447.535 0
      vertex 47.0378 447.535 -700
      vertex -47.0378 447.535 -700
    endloop
  endfacet
  facet normal 0.743145 -0.66913 0
    outer loop
      vertex 301.109 -334.415 0
      vertex 364.058 -264.503 -700
      vertex 364.058 -264.503 0
    endloop
  endfacet
  facet normal 0.743145 -0.66913 0
    outer loop
      vertex 364.058 -264.503 -700
      vertex 301.109 -334.415 0
      vertex 301.109 -334.415 -700
    endloop
  endfacet
  facet normal 0.207917 -0.978147 0
    outer loop
      vertex 47.0378 -447.535 -700
      vertex 139.058 -427.975 0
      vertex 47.0378 -447.535 0
    endloop
  endfacet
  facet normal 0.207917 -0.978147 0
    outer loop
      vertex 139.058 -427.975 0
      vertex 47.0378 -447.535 -700
      vertex 139.058 -427.975 -700
    endloop
  endfacet
  facet normal 0.866029 -0.499993 0
    outer loop
      vertex 364.058 -264.503 0
      vertex 411.095 -183.031 -700
      vertex 411.095 -183.031 0
    endloop
  endfacet
  facet normal 0.866029 -0.499993 0
    outer loop
      vertex 411.095 -183.031 -700
      vertex 364.058 -264.503 0
      vertex 364.058 -264.503 -700
    endloop
  endfacet
  facet normal 0.207917 0.978147 -0
    outer loop
      vertex 139.058 427.975 -700
      vertex 47.0378 447.535 0
      vertex 139.058 427.975 0
    endloop
  endfacet
  facet normal 0.207917 0.978147 0
    outer loop
      vertex 47.0378 447.535 0
      vertex 139.058 427.975 -700
      vertex 47.0378 447.535 -700
    endloop
  endfacet
  facet normal 0.587782 -0.809019 0
    outer loop
      vertex 225 -389.711 -700
      vertex 301.109 -334.415 0
      vertex 225 -389.711 0
    endloop
  endfacet
  facet normal 0.587782 -0.809019 0
    outer loop
      vertex 301.109 -334.415 0
      vertex 225 -389.711 -700
      vertex 301.109 -334.415 -700
    endloop
  endfacet
  facet normal 0.587782 0.809019 -0
    outer loop
      vertex 301.109 334.415 -700
      vertex 225 389.711 0
      vertex 301.109 334.415 0
    endloop
  endfacet
  facet normal 0.587782 0.809019 0
    outer loop
      vertex 225 389.711 0
      vertex 301.109 334.415 -700
      vertex 225 389.711 -700
    endloop
  endfacet
  facet normal -0.207917 0.978147 0
    outer loop
      vertex -47.0378 447.535 -700
      vertex -139.058 427.975 0
      vertex -47.0378 447.535 0
    endloop
  endfacet
  facet normal -0.207917 0.978147 0
    outer loop
      vertex -139.058 427.975 0
      vertex -47.0378 447.535 -700
      vertex -139.058 427.975 -700
    endloop
  endfacet
  facet normal -0.994521 -0.104534 0
    outer loop
      vertex -450 0 -700
      vertex -441.543 -80.4585 -1
      vertex -450 0 -1
    endloop
  endfacet
  facet normal -0.994521 -0.104533 1.6071e-07
    outer loop
      vertex -440.166 -93.5603 -700
      vertex -441.543 -80.4585 -1
      vertex -450 0 -700
    endloop
  endfacet
  facet normal -0.994522 -0.104524 -0
    outer loop
      vertex -440.166 -93.5603 0
      vertex -441.543 -80.4585 -1
      vertex -440.166 -93.5603 -700
    endloop
  endfacet
  facet normal -0.994522 -0.104524 0
    outer loop
      vertex -441.543 -80.4585 -1
      vertex -440.166 -93.5603 0
      vertex -441.543 -80.4585 0
    endloop
  endfacet
  facet normal 0 0 -1
    outer loop
      vertex 440.166 -93.5603 -700
      vertex 440.166 93.5603 -700
      vertex 450 0 -700
    endloop
  endfacet
  facet normal 0 0 -1
    outer loop
      vertex 411.095 -183.031 -700
      vertex 440.166 93.5603 -700
      vertex 440.166 -93.5603 -700
    endloop
  endfacet
  facet normal 0 0 -1
    outer loop
      vertex 411.095 -183.031 -700
      vertex 411.095 183.031 -700
      vertex 440.166 93.5603 -700
    endloop
  endfacet
  facet normal 0 0 -1
    outer loop
      vertex 364.058 -264.503 -700
      vertex 411.095 183.031 -700
      vertex 411.095 -183.031 -700
    endloop
  endfacet
  facet normal 0 0 -1
    outer loop
      vertex 364.058 -264.503 -700
      vertex 364.058 264.503 -700
      vertex 411.095 183.031 -700
    endloop
  endfacet
  facet normal 0 0 -1
    outer loop
      vertex 301.109 -334.415 -700
      vertex 364.058 264.503 -700
      vertex 364.058 -264.503 -700
    endloop
  endfacet
  facet normal 0 0 -1
    outer loop
      vertex 301.109 -334.415 -700
      vertex 301.109 334.415 -700
      vertex 364.058 264.503 -700
    endloop
  endfacet
  facet normal 0 0 -1
    outer loop
      vertex 225 -389.711 -700
      vertex 301.109 334.415 -700
      vertex 301.109 -334.415 -700
    endloop
  endfacet
  facet normal 0 0 -1
    outer loop
      vertex 225 -389.711 -700
      vertex 225 389.711 -700
      vertex 301.109 334.415 -700
    endloop
  endfacet
  facet normal 0 0 -1
    outer loop
      vertex 139.058 -427.975 -700
      vertex 225 389.711 -700
      vertex 225 -389.711 -700
    endloop
  endfacet
  facet normal 0 0 -1
    outer loop
      vertex 139.058 -427.975 -700
      vertex 139.058 427.975 -700
      vertex 225 389.711 -700
    endloop
  endfacet
  facet normal 0 0 -1
    outer loop
      vertex 47.0378 -447.535 -700
      vertex 139.058 427.975 -700
      vertex 139.058 -427.975 -700
    endloop
  endfacet
  facet normal 0 0 -1
    outer loop
      vertex 47.0378 -447.535 -700
      vertex 47.0378 447.535 -700
      vertex 139.058 427.975 -700
    endloop
  endfacet
  facet normal 0 0 -1
    outer loop
      vertex -47.0378 -447.535 -700
      vertex 47.0378 447.535 -700
      vertex 47.0378 -447.535 -700
    endloop
  endfacet
  facet normal 0 0 -1
    outer loop
      vertex -47.0378 -447.535 -700
      vertex -47.0378 447.535 -700
      vertex 47.0378 447.535 -700
    endloop
  endfacet
  facet normal 0 0 -1
    outer loop
      vertex -139.058 -427.975 -700
      vertex -47.0378 447.535 -700
      vertex -47.0378 -447.535 -700
    endloop
  endfacet
  facet normal 0 0 -1
    outer loop
      vertex -139.058 -427.975 -700
      vertex -139.058 427.975 -700
      vertex -47.0378 447.535 -700
    endloop
  endfacet
  facet normal 0 0 -1
    outer loop
      vertex -225 -389.711 -700
      vertex -139.058 427.975 -700
      vertex -139.058 -427.975 -700
    endloop
  endfacet
  facet normal 0 0 -1
    outer loop
      vertex -225 -389.711 -700
      vertex -225 389.711 -700
      vertex -139.058 427.975 -700
    endloop
  endfacet
  facet normal 0 0 -1
    outer loop
      vertex -301.109 -334.415 -700
      vertex -225 389.711 -700
      vertex -225 -389.711 -700
    endloop
  endfacet
  facet normal 0 0 -1
    outer loop
      vertex -301.109 -334.415 -700
      vertex -301.109 334.415 -700
      vertex -225 389.711 -700
    endloop
  endfacet
  facet normal 0 0 -1
    outer loop
      vertex -364.058 -264.503 -700
      vertex -301.109 334.415 -700
      vertex -301.109 -334.415 -700
    endloop
  endfacet
  facet normal 0 0 -1
    outer loop
      vertex -364.058 -264.503 -700
      vertex -364.058 264.503 -700
      vertex -301.109 334.415 -700
    endloop
  endfacet
  facet normal 0 0 -1
    outer loop
      vertex -411.095 -183.031 -700
      vertex -364.058 264.503 -700
      vertex -364.058 -264.503 -700
    endloop
  endfacet
  facet normal 0 0 -1
    outer loop
      vertex -411.095 -183.031 -700
      vertex -411.095 183.031 -700
      vertex -364.058 264.503 -700
    endloop
  endfacet
  facet normal 0 0 -1
    outer loop
      vertex -440.166 -93.5603 -700
      vertex -411.095 183.031 -700
      vertex -411.095 -183.031 -700
    endloop
  endfacet
  facet normal 0 0 -1
    outer loop
      vertex -440.166 -93.5603 -700
      vertex -440.166 93.5603 -700
      vertex -411.095 183.031 -700
    endloop
  endfacet
  facet normal 0 -0 -1
    outer loop
      vertex -440.166 93.5603 -700
      vertex -440.166 -93.5603 -700
      vertex -450 0 -700
    endloop
  endfacet
  facet normal 0.406738 -0.913545 0
    outer loop
      vertex 139.058 -427.975 -700
      vertex 225 -389.711 0
      vertex 139.058 -427.975 0
    endloop
  endfacet
  facet normal 0.406738 -0.913545 0
    outer loop
      vertex 225 -389.711 0
      vertex 139.058 -427.975 -700
      vertex 225 -389.711 -700
    endloop
  endfacet
  facet normal -0.743145 -0.66913 0
    outer loop
      vertex -301.109 -334.415 -700
      vertex -364.058 -264.503 0
      vertex -364.058 -264.503 -700
    endloop
  endfacet
  facet normal -0.743145 -0.66913 0
    outer loop
      vertex -364.058 -264.503 0
      vertex -301.109 -334.415 -700
      vertex -301.109 -334.415 0
    endloop
  endfacet
  facet normal -0.587782 -0.809019 0
    outer loop
      vertex -301.109 -334.415 -700
      vertex -225 -389.711 0
      vertex -301.109 -334.415 0
    endloop
  endfacet
  facet normal -0.587782 -0.809019 -0
    outer loop
      vertex -225 -389.711 0
      vertex -301.109 -334.415 -700
      vertex -225 -389.711 -700
    endloop
  endfacet
  facet normal -0.866029 0.499993 0
    outer loop
      vertex -411.095 183.031 -700
      vertex -364.058 264.503 0
      vertex -364.058 264.503 -700
    endloop
  endfacet
  facet normal -0.866029 0.499993 0
    outer loop
      vertex -364.058 264.503 0
      vertex -411.095 183.031 -700
      vertex -411.095 183.031 0
    endloop
  endfacet
  facet normal 0.207909 -0.978148 0
    outer loop
      vertex 469.098 95.1057 0
      vertex 489.547 99.4522 200
      vertex 469.098 95.1057 200
    endloop
  endfacet
  facet normal 0.207909 -0.978148 0
    outer loop
      vertex 489.547 99.4522 200
      vertex 469.098 95.1057 0
      vertex 489.547 99.4522 0
    endloop
  endfacet
  facet normal -0.95106 -0.309008 0
    outer loop
      vertex 597.815 20.7912 0
      vertex 591.355 40.6737 200
      vertex 591.355 40.6737 0
    endloop
  endfacet
  facet normal -0.95106 -0.309008 0
    outer loop
      vertex 591.355 40.6737 200
      vertex 597.815 20.7912 0
      vertex 597.815 20.7912 200
    endloop
  endfacet
  facet normal -0.406746 0.913542 0
    outer loop
      vertex 550 -86.6025 0
      vertex 530.902 -95.1057 200
      vertex 550 -86.6025 200
    endloop
  endfacet
  facet normal -0.406746 0.913542 0
    outer loop
      vertex 530.902 -95.1057 200
      vertex 550 -86.6025 0
      vertex 530.902 -95.1057 0
    endloop
  endfacet
  facet normal 0.406746 0.913542 -0
    outer loop
      vertex 469.098 -95.1057 0
      vertex 450 -86.6025 200
      vertex 469.098 -95.1057 200
    endloop
  endfacet
  facet normal 0.406746 0.913542 0
    outer loop
      vertex 450 -86.6025 200
      vertex 469.098 -95.1057 0
      vertex 450 -86.6025 0
    endloop
  endfacet
  facet normal -0.994523 0.104517 0
    outer loop
      vertex 597.815 -20.7912 0
      vertex 600 0 200
      vertex 600 0 0
    endloop
  endfacet
  facet normal -0.994523 0.104517 0
    outer loop
      vertex 600 0 200
      vertex 597.815 -20.7912 0
      vertex 597.815 -20.7912 200
    endloop
  endfacet
  facet normal 0.95106 0.309008 0
    outer loop
      vertex 408.645 -40.6737 200
      vertex 402.185 -20.7912 -1
      vertex 402.185 -20.7912 200
    endloop
  endfacet
  facet normal 0.95106 0.309008 0
    outer loop
      vertex 402.185 -20.7912 -1
      vertex 408.645 -40.6737 200
      vertex 408.645 -40.6737 -1
    endloop
  endfacet
  facet normal -0.866021 0.500007 0
    outer loop
      vertex 580.902 -58.7785 0
      vertex 591.355 -40.6737 200
      vertex 591.355 -40.6737 0
    endloop
  endfacet
  facet normal -0.866021 0.500007 0
    outer loop
      vertex 591.355 -40.6737 200
      vertex 580.902 -58.7785 0
      vertex 580.902 -58.7785 200
    endloop
  endfacet
  facet normal -0.207909 0.978148 0
    outer loop
      vertex 530.902 -95.1057 0
      vertex 510.453 -99.4522 200
      vertex 530.902 -95.1057 200
    endloop
  endfacet
  facet normal -0.207909 0.978148 0
    outer loop
      vertex 510.453 -99.4522 200
      vertex 530.902 -95.1057 0
      vertex 510.453 -99.4522 0
    endloop
  endfacet
  facet normal -0.207909 -0.978148 0
    outer loop
      vertex 510.453 99.4522 0
      vertex 530.902 95.1057 200
      vertex 510.453 99.4522 200
    endloop
  endfacet
  facet normal -0.207909 -0.978148 -0
    outer loop
      vertex 530.902 95.1057 200
      vertex 510.453 99.4522 0
      vertex 530.902 95.1057 0
    endloop
  endfacet
  facet normal -0.994523 -0.104517 0
    outer loop
      vertex 600 0 0
      vertex 597.815 20.7912 200
      vertex 597.815 20.7912 0
    endloop
  endfacet
  facet normal -0.994523 -0.104517 0
    outer loop
      vertex 597.815 20.7912 200
      vertex 600 0 0
      vertex 600 0 200
    endloop
  endfacet
  facet normal 0.587785 -0.809017 -1.46946e-06
    outer loop
      vertex 433.087 74.3145 200
      vertex 441.543 80.4585 0
      vertex 450 86.6025 200
    endloop
  endfacet
  facet normal 0.587808 -0.809001 0
    outer loop
      vertex 433.087 74.3145 -1
      vertex 441.543 80.4585 0
      vertex 433.087 74.3145 200
    endloop
  endfacet
  facet normal 0.587808 -0.809001 0
    outer loop
      vertex 441.543 80.4585 0
      vertex 433.087 74.3145 -1
      vertex 441.543 80.4585 -1
    endloop
  endfacet
  facet normal 0.587762 -0.809034 0
    outer loop
      vertex 450 86.6025 200
      vertex 441.543 80.4585 0
      vertex 450 86.6025 0
    endloop
  endfacet
  facet normal -0.866021 -0.500007 0
    outer loop
      vertex 591.355 40.6737 0
      vertex 580.902 58.7785 200
      vertex 580.902 58.7785 0
    endloop
  endfacet
  facet normal -0.866021 -0.500007 0
    outer loop
      vertex 580.902 58.7785 200
      vertex 591.355 40.6737 0
      vertex 591.355 40.6737 200
    endloop
  endfacet
  facet normal -0.743137 0.669139 0
    outer loop
      vertex 566.913 -74.3145 0
      vertex 580.902 -58.7785 200
      vertex 580.902 -58.7785 0
    endloop
  endfacet
  facet normal -0.743137 0.669139 0
    outer loop
      vertex 580.902 -58.7785 200
      vertex 566.913 -74.3145 0
      vertex 566.913 -74.3145 200
    endloop
  endfacet
  facet normal 0 -1 0
    outer loop
      vertex 489.547 99.4522 0
      vertex 510.453 99.4522 200
      vertex 489.547 99.4522 200
    endloop
  endfacet
  facet normal 0 -1 -0
    outer loop
      vertex 510.453 99.4522 200
      vertex 489.547 99.4522 0
      vertex 510.453 99.4522 0
    endloop
  endfacet
  facet normal -0.406746 -0.913542 0
    outer loop
      vertex 530.902 95.1057 0
      vertex 550 86.6025 200
      vertex 530.902 95.1057 200
    endloop
  endfacet
  facet normal -0.406746 -0.913542 -0
    outer loop
      vertex 550 86.6025 200
      vertex 530.902 95.1057 0
      vertex 550 86.6025 0
    endloop
  endfacet
  facet normal 0.587762 0.809034 0
    outer loop
      vertex 441.543 -80.4585 0
      vertex 450 -86.6025 200
      vertex 450 -86.6025 0
    endloop
  endfacet
  facet normal 0.587785 0.809017 -1.46946e-06
    outer loop
      vertex 450 -86.6025 200
      vertex 441.543 -80.4585 0
      vertex 433.087 -74.3145 200
    endloop
  endfacet
  facet normal 0.587808 0.809001 0
    outer loop
      vertex 433.087 -74.3145 -1
      vertex 441.543 -80.4585 0
      vertex 441.543 -80.4585 -1
    endloop
  endfacet
  facet normal 0.587808 0.809001 0
    outer loop
      vertex 441.543 -80.4585 0
      vertex 433.087 -74.3145 -1
      vertex 433.087 -74.3145 200
    endloop
  endfacet
  facet normal -0.587785 -0.809017 0
    outer loop
      vertex 550 86.6025 0
      vertex 566.913 74.3145 200
      vertex 550 86.6025 200
    endloop
  endfacet
  facet normal -0.587785 -0.809017 -0
    outer loop
      vertex 566.913 74.3145 200
      vertex 550 86.6025 0
      vertex 566.913 74.3145 0
    endloop
  endfacet
  facet normal -0 0 1
    outer loop
      vertex 433.087 74.3145 -1
      vertex 450 0 -1
      vertex 441.543 80.4585 -1
    endloop
  endfacet
  facet normal 0 0 1
    outer loop
      vertex 450 0 -1
      vertex 433.087 74.3145 -1
      vertex 419.098 58.7785 -1
    endloop
  endfacet
  facet normal 0 0 1
    outer loop
      vertex 450 0 -1
      vertex 419.098 58.7785 -1
      vertex 408.645 40.6737 -1
    endloop
  endfacet
  facet normal -0 0 1
    outer loop
      vertex 402.185 20.7912 -1
      vertex 450 0 -1
      vertex 408.645 40.6737 -1
    endloop
  endfacet
  facet normal 0 0 1
    outer loop
      vertex 450 0 -1
      vertex 433.087 -74.3145 -1
      vertex 441.543 -80.4585 -1
    endloop
  endfacet
  facet normal 0 -0 1
    outer loop
      vertex 419.098 -58.7785 -1
      vertex 450 0 -1
      vertex 408.645 -40.6737 -1
    endloop
  endfacet
  facet normal 0 -0 1
    outer loop
      vertex 433.087 -74.3145 -1
      vertex 450 0 -1
      vertex 419.098 -58.7785 -1
    endloop
  endfacet
  facet normal 0 0 1
    outer loop
      vertex 400 0 -1
      vertex 450 0 -1
      vertex 402.185 20.7912 -1
    endloop
  endfacet
  facet normal 0 0 1
    outer loop
      vertex 450 0 -1
      vertex 402.185 -20.7912 -1
      vertex 408.645 -40.6737 -1
    endloop
  endfacet
  facet normal 0 0 1
    outer loop
      vertex 450 0 -1
      vertex 400 0 -1
      vertex 402.185 -20.7912 -1
    endloop
  endfacet
  facet normal 0.406746 -0.913542 0
    outer loop
      vertex 450 86.6025 0
      vertex 469.098 95.1057 200
      vertex 450 86.6025 200
    endloop
  endfacet
  facet normal 0.406746 -0.913542 0
    outer loop
      vertex 469.098 95.1057 200
      vertex 450 86.6025 0
      vertex 469.098 95.1057 0
    endloop
  endfacet
  facet normal -0.587785 0.809017 0
    outer loop
      vertex 566.913 -74.3145 0
      vertex 550 -86.6025 200
      vertex 566.913 -74.3145 200
    endloop
  endfacet
  facet normal -0.587785 0.809017 0
    outer loop
      vertex 550 -86.6025 200
      vertex 566.913 -74.3145 0
      vertex 550 -86.6025 0
    endloop
  endfacet
  facet normal 0.207909 0.978148 -0
    outer loop
      vertex 489.547 -99.4522 0
      vertex 469.098 -95.1057 200
      vertex 489.547 -99.4522 200
    endloop
  endfacet
  facet normal 0.207909 0.978148 0
    outer loop
      vertex 469.098 -95.1057 200
      vertex 489.547 -99.4522 0
      vertex 469.098 -95.1057 0
    endloop
  endfacet
  facet normal -0.743137 -0.669139 0
    outer loop
      vertex 580.902 58.7785 0
      vertex 566.913 74.3145 200
      vertex 566.913 74.3145 0
    endloop
  endfacet
  facet normal -0.743137 -0.669139 0
    outer loop
      vertex 566.913 74.3145 200
      vertex 580.902 58.7785 0
      vertex 580.902 58.7785 200
    endloop
  endfacet
  facet normal -0.95106 0.309008 0
    outer loop
      vertex 591.355 -40.6737 0
      vertex 597.815 -20.7912 200
      vertex 597.815 -20.7912 0
    endloop
  endfacet
  facet normal -0.95106 0.309008 0
    outer loop
      vertex 597.815 -20.7912 200
      vertex 591.355 -40.6737 0
      vertex 591.355 -40.6737 200
    endloop
  endfacet
  facet normal 0.994523 0.104517 0
    outer loop
      vertex 402.185 -20.7912 200
      vertex 400 0 -1
      vertex 400 0 200
    endloop
  endfacet
  facet normal 0.994523 0.104517 0
    outer loop
      vertex 400 0 -1
      vertex 402.185 -20.7912 200
      vertex 402.185 -20.7912 -1
    endloop
  endfacet
  facet normal 0.994523 -0.104517 0
    outer loop
      vertex 400 0 200
      vertex 402.185 20.7912 -1
      vertex 402.185 20.7912 200
    endloop
  endfacet
  facet normal 0.994523 -0.104517 0
    outer loop
      vertex 402.185 20.7912 -1
      vertex 400 0 200
      vertex 400 0 -1
    endloop
  endfacet
  facet normal 0.743137 -0.669139 0
    outer loop
      vertex 419.098 58.7785 200
      vertex 433.087 74.3145 -1
      vertex 433.087 74.3145 200
    endloop
  endfacet
  facet normal 0.743137 -0.669139 0
    outer loop
      vertex 433.087 74.3145 -1
      vertex 419.098 58.7785 200
      vertex 419.098 58.7785 -1
    endloop
  endfacet
  facet normal 0.866021 -0.500007 0
    outer loop
      vertex 408.645 40.6737 200
      vertex 419.098 58.7785 -1
      vertex 419.098 58.7785 200
    endloop
  endfacet
  facet normal 0.866021 -0.500007 0
    outer loop
      vertex 419.098 58.7785 -1
      vertex 408.645 40.6737 200
      vertex 408.645 40.6737 -1
    endloop
  endfacet
  facet normal 0.95106 -0.309008 0
    outer loop
      vertex 402.185 20.7912 200
      vertex 408.645 40.6737 -1
      vertex 408.645 40.6737 200
    endloop
  endfacet
  facet normal 0.95106 -0.309008 0
    outer loop
      vertex 408.645 40.6737 -1
      vertex 402.185 20.7912 200
      vertex 402.185 20.7912 -1
    endloop
  endfacet
  facet normal 0.866021 0.500007 0
    outer loop
      vertex 419.098 -58.7785 200
      vertex 408.645 -40.6737 -1
      vertex 408.645 -40.6737 200
    endloop
  endfacet
  facet normal 0.866021 0.500007 0
    outer loop
      vertex 408.645 -40.6737 -1
      vertex 419.098 -58.7785 200
      vertex 419.098 -58.7785 -1
    endloop
  endfacet
  facet normal 0.743137 0.669139 0
    outer loop
      vertex 433.087 -74.3145 200
      vertex 419.098 -58.7785 -1
      vertex 419.098 -58.7785 200
    endloop
  endfacet
  facet normal 0.743137 0.669139 0
    outer loop
      vertex 419.098 -58.7785 -1
      vertex 433.087 -74.3145 200
      vertex 433.087 -74.3145 -1
    endloop
  endfacet
  facet normal 0 1 -0
    outer loop
      vertex 510.453 -99.4522 0
      vertex 489.547 -99.4522 200
      vertex 510.453 -99.4522 200
    endloop
  endfacet
  facet normal 0 1 0
    outer loop
      vertex 489.547 -99.4522 200
      vertex 510.453 -99.4522 0
      vertex 489.547 -99.4522 0
    endloop
  endfacet
  facet normal 0.994523 -0.104517 0
    outer loop
      vertex -600 0 200
      vertex -597.815 20.7912 0
      vertex -597.815 20.7912 200
    endloop
  endfacet
  facet normal 0.994523 -0.104517 0
    outer loop
      vertex -597.815 20.7912 0
      vertex -600 0 200
      vertex -600 0 0
    endloop
  endfacet
  facet normal 0.207909 0.978148 -0
    outer loop
      vertex -510.453 -99.4522 0
      vertex -530.902 -95.1057 200
      vertex -510.453 -99.4522 200
    endloop
  endfacet
  facet normal 0.207909 0.978148 0
    outer loop
      vertex -530.902 -95.1057 200
      vertex -510.453 -99.4522 0
      vertex -530.902 -95.1057 0
    endloop
  endfacet
  facet normal -0.95106 -0.309008 0
    outer loop
      vertex -402.185 20.7912 -1
      vertex -408.645 40.6737 200
      vertex -408.645 40.6737 -1
    endloop
  endfacet
  facet normal -0.95106 -0.309008 0
    outer loop
      vertex -408.645 40.6737 200
      vertex -402.185 20.7912 -1
      vertex -402.185 20.7912 200
    endloop
  endfacet
  facet normal -0.406746 -0.913542 0
    outer loop
      vertex -469.098 95.1057 0
      vertex -450 86.6025 200
      vertex -469.098 95.1057 200
    endloop
  endfacet
  facet normal -0.406746 -0.913542 -0
    outer loop
      vertex -450 86.6025 200
      vertex -469.098 95.1057 0
      vertex -450 86.6025 0
    endloop
  endfacet
  facet normal -0.994523 0.104517 0
    outer loop
      vertex -402.185 -20.7912 -1
      vertex -400 0 200
      vertex -400 0 -1
    endloop
  endfacet
  facet normal -0.994523 0.104517 0
    outer loop
      vertex -400 0 200
      vertex -402.185 -20.7912 -1
      vertex -402.185 -20.7912 200
    endloop
  endfacet
  facet normal -0.994523 -0.104517 0
    outer loop
      vertex -400 0 -1
      vertex -402.185 20.7912 200
      vertex -402.185 20.7912 -1
    endloop
  endfacet
  facet normal -0.994523 -0.104517 0
    outer loop
      vertex -402.185 20.7912 200
      vertex -400 0 -1
      vertex -400 0 200
    endloop
  endfacet
  facet normal 0.406746 -0.913542 0
    outer loop
      vertex -550 86.6025 0
      vertex -530.902 95.1057 200
      vertex -550 86.6025 200
    endloop
  endfacet
  facet normal 0.406746 -0.913542 0
    outer loop
      vertex -530.902 95.1057 200
      vertex -550 86.6025 0
      vertex -530.902 95.1057 0
    endloop
  endfacet
  facet normal 0.743137 0.669139 0
    outer loop
      vertex -566.913 -74.3145 200
      vertex -580.902 -58.7785 0
      vertex -580.902 -58.7785 200
    endloop
  endfacet
  facet normal 0.743137 0.669139 0
    outer loop
      vertex -580.902 -58.7785 0
      vertex -566.913 -74.3145 200
      vertex -566.913 -74.3145 0
    endloop
  endfacet
  facet normal 0.587785 0.809017 -0
    outer loop
      vertex -550 -86.6025 0
      vertex -566.913 -74.3145 200
      vertex -550 -86.6025 200
    endloop
  endfacet
  facet normal 0.587785 0.809017 0
    outer loop
      vertex -566.913 -74.3145 200
      vertex -550 -86.6025 0
      vertex -566.913 -74.3145 0
    endloop
  endfacet
  facet normal 0.406746 0.913542 -0
    outer loop
      vertex -530.902 -95.1057 0
      vertex -550 -86.6025 200
      vertex -530.902 -95.1057 200
    endloop
  endfacet
  facet normal 0.406746 0.913542 0
    outer loop
      vertex -550 -86.6025 200
      vertex -530.902 -95.1057 0
      vertex -550 -86.6025 0
    endloop
  endfacet
  facet normal -0.866021 0.500007 0
    outer loop
      vertex -419.098 -58.7785 -1
      vertex -408.645 -40.6737 200
      vertex -408.645 -40.6737 -1
    endloop
  endfacet
  facet normal -0.866021 0.500007 0
    outer loop
      vertex -408.645 -40.6737 200
      vertex -419.098 -58.7785 -1
      vertex -419.098 -58.7785 200
    endloop
  endfacet
  facet normal -0.866021 -0.500007 0
    outer loop
      vertex -408.645 40.6737 -1
      vertex -419.098 58.7785 200
      vertex -419.098 58.7785 -1
    endloop
  endfacet
  facet normal -0.866021 -0.500007 0
    outer loop
      vertex -419.098 58.7785 200
      vertex -408.645 40.6737 -1
      vertex -408.645 40.6737 200
    endloop
  endfacet
  facet normal 0 -1 0
    outer loop
      vertex -510.453 99.4522 0
      vertex -489.547 99.4522 200
      vertex -510.453 99.4522 200
    endloop
  endfacet
  facet normal 0 -1 -0
    outer loop
      vertex -489.547 99.4522 200
      vertex -510.453 99.4522 0
      vertex -489.547 99.4522 0
    endloop
  endfacet
  facet normal 0.587785 -0.809017 0
    outer loop
      vertex -566.913 74.3145 0
      vertex -550 86.6025 200
      vertex -566.913 74.3145 200
    endloop
  endfacet
  facet normal 0.587785 -0.809017 0
    outer loop
      vertex -550 86.6025 200
      vertex -566.913 74.3145 0
      vertex -550 86.6025 0
    endloop
  endfacet
  facet normal -0.743137 0.669139 0
    outer loop
      vertex -433.087 -74.3145 -1
      vertex -419.098 -58.7785 200
      vertex -419.098 -58.7785 -1
    endloop
  endfacet
  facet normal -0.743137 0.669139 0
    outer loop
      vertex -419.098 -58.7785 200
      vertex -433.087 -74.3145 -1
      vertex -433.087 -74.3145 200
    endloop
  endfacet
  facet normal 0.207909 -0.978148 0
    outer loop
      vertex -530.902 95.1057 0
      vertex -510.453 99.4522 200
      vertex -530.902 95.1057 200
    endloop
  endfacet
  facet normal 0.207909 -0.978148 0
    outer loop
      vertex -510.453 99.4522 200
      vertex -530.902 95.1057 0
      vertex -510.453 99.4522 0
    endloop
  endfacet
  facet normal 0.743137 -0.669139 0
    outer loop
      vertex -580.902 58.7785 200
      vertex -566.913 74.3145 0
      vertex -566.913 74.3145 200
    endloop
  endfacet
  facet normal 0.743137 -0.669139 0
    outer loop
      vertex -566.913 74.3145 0
      vertex -580.902 58.7785 200
      vertex -580.902 58.7785 0
    endloop
  endfacet
  facet normal -0.743137 -0.669139 0
    outer loop
      vertex -419.098 58.7785 -1
      vertex -433.087 74.3145 200
      vertex -433.087 74.3145 -1
    endloop
  endfacet
  facet normal -0.743137 -0.669139 0
    outer loop
      vertex -433.087 74.3145 200
      vertex -419.098 58.7785 -1
      vertex -419.098 58.7785 200
    endloop
  endfacet
  facet normal -0.95106 0.309008 0
    outer loop
      vertex -408.645 -40.6737 -1
      vertex -402.185 -20.7912 200
      vertex -402.185 -20.7912 -1
    endloop
  endfacet
  facet normal -0.95106 0.309008 0
    outer loop
      vertex -402.185 -20.7912 200
      vertex -408.645 -40.6737 -1
      vertex -408.645 -40.6737 200
    endloop
  endfacet
  facet normal -0.406746 0.913542 0
    outer loop
      vertex -450 -86.6025 0
      vertex -469.098 -95.1057 200
      vertex -450 -86.6025 200
    endloop
  endfacet
  facet normal -0.406746 0.913542 0
    outer loop
      vertex -469.098 -95.1057 200
      vertex -450 -86.6025 0
      vertex -469.098 -95.1057 0
    endloop
  endfacet
  facet normal -0.587785 0.809017 -1.46946e-06
    outer loop
      vertex -433.087 -74.3145 200
      vertex -441.543 -80.4585 0
      vertex -450 -86.6025 200
    endloop
  endfacet
  facet normal -0.587808 0.809001 0
    outer loop
      vertex -433.087 -74.3145 -1
      vertex -441.543 -80.4585 0
      vertex -433.087 -74.3145 200
    endloop
  endfacet
  facet normal -0.587808 0.809001 0
    outer loop
      vertex -441.543 -80.4585 0
      vertex -433.087 -74.3145 -1
      vertex -441.543 -80.4585 -1
    endloop
  endfacet
  facet normal -0.587762 0.809034 0
    outer loop
      vertex -450 -86.6025 200
      vertex -441.543 -80.4585 0
      vertex -450 -86.6025 0
    endloop
  endfacet
  facet normal -0.207909 0.978148 0
    outer loop
      vertex -469.098 -95.1057 0
      vertex -489.547 -99.4522 200
      vertex -469.098 -95.1057 200
    endloop
  endfacet
  facet normal -0.207909 0.978148 0
    outer loop
      vertex -489.547 -99.4522 200
      vertex -469.098 -95.1057 0
      vertex -489.547 -99.4522 0
    endloop
  endfacet
  facet normal -0.207909 -0.978148 0
    outer loop
      vertex -489.547 99.4522 0
      vertex -469.098 95.1057 200
      vertex -489.547 99.4522 200
    endloop
  endfacet
  facet normal -0.207909 -0.978148 -0
    outer loop
      vertex -469.098 95.1057 200
      vertex -489.547 99.4522 0
      vertex -469.098 95.1057 0
    endloop
  endfacet
  facet normal -0.587762 -0.809034 0
    outer loop
      vertex -441.543 80.4585 0
      vertex -450 86.6025 200
      vertex -450 86.6025 0
    endloop
  endfacet
  facet normal -0.587785 -0.809017 -1.46946e-06
    outer loop
      vertex -450 86.6025 200
      vertex -441.543 80.4585 0
      vertex -433.087 74.3145 200
    endloop
  endfacet
  facet normal -0.587808 -0.809001 0
    outer loop
      vertex -433.087 74.3145 -1
      vertex -441.543 80.4585 0
      vertex -441.543 80.4585 -1
    endloop
  endfacet
  facet normal -0.587808 -0.809001 0
    outer loop
      vertex -441.543 80.4585 0
      vertex -433.087 74.3145 -1
      vertex -433.087 74.3145 200
    endloop
  endfacet
  facet normal 0.95106 0.309008 0
    outer loop
      vertex -591.355 -40.6737 200
      vertex -597.815 -20.7912 0
      vertex -597.815 -20.7912 200
    endloop
  endfacet
  facet normal 0.95106 0.309008 0
    outer loop
      vertex -597.815 -20.7912 0
      vertex -591.355 -40.6737 200
      vertex -591.355 -40.6737 0
    endloop
  endfacet
  facet normal 0 1 -0
    outer loop
      vertex -489.547 -99.4522 0
      vertex -510.453 -99.4522 200
      vertex -489.547 -99.4522 200
    endloop
  endfacet
  facet normal 0 1 0
    outer loop
      vertex -510.453 -99.4522 200
      vertex -489.547 -99.4522 0
      vertex -510.453 -99.4522 0
    endloop
  endfacet
  facet normal 0.866021 0.500007 0
    outer loop
      vertex -580.902 -58.7785 200
      vertex -591.355 -40.6737 0
      vertex -591.355 -40.6737 200
    endloop
  endfacet
  facet normal 0.866021 0.500007 0
    outer loop
      vertex -591.355 -40.6737 0
      vertex -580.902 -58.7785 200
      vertex -580.902 -58.7785 0
    endloop
  endfacet
  facet normal 0.994523 0.104517 0
    outer loop
      vertex -597.815 -20.7912 200
      vertex -600 0 0
      vertex -600 0 200
    endloop
  endfacet
  facet normal 0.994523 0.104517 0
    outer loop
      vertex -600 0 0
      vertex -597.815 -20.7912 200
      vertex -597.815 -20.7912 0
    endloop
  endfacet
  facet normal 0.95106 -0.309008 0
    outer loop
      vertex -597.815 20.7912 200
      vertex -591.355 40.6737 0
      vertex -591.355 40.6737 200
    endloop
  endfacet
  facet normal 0.95106 -0.309008 0
    outer loop
      vertex -591.355 40.6737 0
      vertex -597.815 20.7912 200
      vertex -597.815 20.7912 0
    endloop
  endfacet
  facet normal 0.866021 -0.500007 0
    outer loop
      vertex -591.355 40.6737 200
      vertex -580.902 58.7785 0
      vertex -580.902 58.7785 200
    endloop
  endfacet
  facet normal 0.866021 -0.500007 0
    outer loop
      vertex -580.902 58.7785 0
      vertex -591.355 40.6737 200
      vertex -591.355 40.6737 0
    endloop
  endfacet
  facet normal 0 0 1
    outer loop
      vertex -450 0 -1
      vertex -400 0 -1
      vertex -402.185 20.7912 -1
    endloop
  endfacet
  facet normal 0 0 1
    outer loop
      vertex -450 0 -1
      vertex -402.185 20.7912 -1
      vertex -408.645 40.6737 -1
    endloop
  endfacet
  facet normal 0 0 1
    outer loop
      vertex -400 0 -1
      vertex -450 0 -1
      vertex -402.185 -20.7912 -1
    endloop
  endfacet
  facet normal 0 0 1
    outer loop
      vertex -450 0 -1
      vertex -408.645 40.6737 -1
      vertex -419.098 58.7785 -1
    endloop
  endfacet
  facet normal 0 0 1
    outer loop
      vertex -402.185 -20.7912 -1
      vertex -450 0 -1
      vertex -408.645 -40.6737 -1
    endloop
  endfacet
  facet normal 0 0 1
    outer loop
      vertex -450 0 -1
      vertex -419.098 58.7785 -1
      vertex -433.087 74.3145 -1
    endloop
  endfacet
  facet normal 0 0 1
    outer loop
      vertex -408.645 -40.6737 -1
      vertex -450 0 -1
      vertex -419.098 -58.7785 -1
    endloop
  endfacet
  facet normal 0 0 1
    outer loop
      vertex -450 0 -1
      vertex -433.087 74.3145 -1
      vertex -441.543 80.4585 -1
    endloop
  endfacet
  facet normal 0 0 1
    outer loop
      vertex -419.098 -58.7785 -1
      vertex -450 0 -1
      vertex -433.087 -74.3145 -1
    endloop
  endfacet
  facet normal 0 0 1
    outer loop
      vertex -433.087 -74.3145 -1
      vertex -450 0 -1
      vertex -441.543 -80.4585 -1
    endloop
  endfacet
endsolid OpenSCAD_Model
